#!OML:ASF F:\VICON\USERDATA\INSTALL\Justin_Nancy\Justin_Nancy.ASF
:FULLY-SPECIFIED
:DEGREES
17
root -8.62087 17.2193 -31.7619 1.47826 -5.45508 -5.3646
lowerback 8.44969 -1.43718 0.239378
upperback -2.80521 -1.41439 6.88184
thorax -7.57144 -0.521698 7.44233
lowerneck -4.53848 0.29865 -14.959
upperneck 17.8587 1.20101 4.76377
head 6.07273 -0.0515516 4.07431
rclavicle 3.52843e-015 6.36111e-015
rhumerus -29.5049 4.55548 -79.9728
rradius 35.3813
rwrist 1.6811
rhand -17.8273 11.4851
rfingers 7.12502
rthumb 8.43702 -18.3264
lclavicle 3.52843e-015 6.36111e-015
lhumerus -44.4619 15.6078 86.1494
lradius 29.777
lwrist -8.18404
lhand -18.7682 24.7144
lfingers 7.12502
lthumb 7.52891 54.5604
rfemur 2.29119 7.846 32.4285
rtibia 22.183
rfoot -17.5569 -9.47715
rtoes 0.76755
lfemur -35.0314 -0.755872 -13.0486
ltibia 41.9995
lfoot -8.26699 6.527
ltoes -7.6751
18
root -8.62177 17.1908 -31.5281 1.61564 -5.61797 -5.50049
lowerback 7.71788 0.090125 2.64774
upperback -1.55743 0.663108 4.90776
thorax -6.00453 0.325152 3.57169
lowerneck -7.81747 -1.62197 -12.4196
upperneck 18.0803 -1.39274 5.56544
head 6.94309 -1.04536 3.75783
rclavicle -2.1419e-014 -2.8625e-014
rhumerus -27.2102 -1.8392 -80.2847
rradius 35.6923
rwrist 2.30663
rhand -17.8271 12.125
rfingers 7.12502
rthumb 8.43719 -17.6865
lclavicle -2.1419e-014 -2.8625e-014
lhumerus -40.7988 10.1806 86.5051
lradius 28.8174
lwrist -8.28552
lhand -17.9961 26.1234
lfingers 7.12502
lthumb 8.27411 55.9414
rfemur 3.46824 7.82086 32.5966
rtibia 21.338
rfoot -17.5496 -9.51316
rtoes -0.337099
lfemur -35.1101 -1.47264 -12.5993
ltibia 38.7698
lfoot -7.51704 6.86938
ltoes -8.99935
19
root -8.62526 17.168 -31.2945 1.83194 -5.74634 -5.56444
lowerback 4.63247 -0.288445 4.53148
upperback -0.119003 -0.0381131 3.75123
thorax -2.72535 -0.0585091 1.33016
lowerneck -6.82803 -1.25197 -12.1969
upperneck 16.1289 -1.19332 6.62291
head 6.11787 -0.8191 4.05199
rclavicle 1.19022e-014 -2.38542e-015
rhumerus -24.4692 -1.87333 -82.3903
rradius 35.6787
rwrist 2.56617
rhand -18.063 12.2734
rfingers 7.12502
rthumb 8.20948 -17.5471
lclavicle 1.19022e-014 -2.38542e-015
lhumerus -39.1649 10.6474 84.7897
lradius 28.1904
lwrist -7.8133
lhand -18.9057 24.4072
lfingers 7.12502
lthumb 7.39615 54.2579
rfemur 4.54259 7.65665 32.6562
rtibia 20.5838
rfoot -17.704 -9.41472
rtoes -1.31871
lfemur -35.2306 -2.12912 -12.2202
ltibia 35.5066
lfoot -6.87535 7.04922
ltoes -8.88912
20
root -8.63116 17.1522 -31.0556 2.08344 -6.0643 -5.64832
lowerback 7.8573 0.467925 2.55501
upperback -1.78298 1.18908 5.04294
thorax -6.35186 0.59143 3.70373
lowerneck -8.47504 -2.00439 -12.5181
upperneck 18.6653 -1.7574 5.2237
head 7.28875 -1.26354 3.63716
rclavicle 4.34841e-015 -1.98785e-014
rhumerus -26.1552 -1.05945 -79.9308
rradius 36.5629
rwrist 1.89821
rhand -17.765 12.5504
rfingers 7.12502
rthumb 8.4971 -17.2587
lclavicle 4.34841e-015 -1.98785e-014
lhumerus -41.3304 11.466 86.2301
lradius 27.718
lwrist -9.29734
lhand -19.1843 22.6418
lfingers 7.12502
lthumb 7.12725 52.5017
rfemur 5.5266 7.4864 32.6615
rtibia 19.9918
rfoot -18.033 -8.92385
rtoes -2.68418
lfemur -35.2861 -2.72925 -11.7608
ltibia 32.263
lfoot -6.36176 7.29054
ltoes -7.36671
21
root -8.6356 17.1348 -30.8125 2.31573 -6.43167 -5.75625
lowerback 7.96941 0.933937 3.0417
upperback -1.79142 1.84272 4.60312
thorax -6.42338 0.884662 2.87423
lowerneck -9.39016 -2.44491 -11.9166
upperneck 19.1879 -2.37477 5.34455
head 7.67218 -1.50749 3.526
rclavicle 1.27719e-014 -3.89618e-014
rhumerus -25.6625 -2.21151 -80.0383
rradius 37.054
rwrist 2.02883
rhand -17.6135 12.4894
rfingers 7.12502
rthumb 8.64333 -17.3136
lclavicle 1.27719e-014 -3.89618e-014
lhumerus -41.1498 10.7018 85.9507
lradius 27.3108
lwrist -9.33523
lhand -18.4317 23.3818
lfingers 7.12502
lthumb 7.85365 53.216
rfemur 6.46805 7.39037 32.6736
rtibia 19.4148
rfoot -18.01 -8.54895
rtoes -3.92593
lfemur -35.3005 -3.65465 -11.0959
ltibia 29.1001
lfoot -6.32939 8.01829
ltoes -7.03815
22
root -8.63978 17.1144 -30.5701 2.50922 -6.663 -5.75852
lowerback 7.87467 0.120401 1.95442
upperback -2.4905 0.74136 5.63142
thorax -7.11473 0.4157 4.7517
lowerneck -7.19892 -1.23666 -13.5035
upperneck 18.8064 -0.733031 5.20527
head 7.02138 -0.861564 3.88272
rclavicle -2.2239e-015 -2.78299e-014
rhumerus -26.0735 2.00265 -80.0619
rradius 37.3899
rwrist 1.71893
rhand -17.7962 12.0615
rfingers 7.12502
rthumb 8.46703 -17.7488
lclavicle -2.2239e-015 -2.78299e-014
lhumerus -43.9504 14.7614 85.0177
lradius 27.4495
lwrist -9.2859
lhand -17.1011 24.7677
lfingers 7.12502
lthumb 9.13775 54.5498
rfemur 7.4801 7.32849 32.5962
rtibia 18.7625
rfoot -17.8566 -8.30452
rtoes -4.8238
lfemur -35.2951 -4.70107 -10.5294
ltibia 26.0943
lfoot -6.67207 9.04622
ltoes -8.34958
23
root -8.64119 17.0926 -30.3189 2.53033 -6.76255 -5.67018
lowerback 7.64898 0.767101 2.63164
upperback -2.06842 1.59267 4.89158
thorax -6.54728 0.784491 3.44992
lowerneck -8.60343 -2.06309 -12.5988
upperneck 19.0418 -1.84869 5.4111
head 7.44479 -1.30544 3.71094
rclavicle 2.7159e-014 3.89618e-014
rhumerus -25.0175 -0.282383 -80.0059
rradius 37.644
rwrist 1.8515
rhand -18.0055 11.9597
rfingers 7.12502
rthumb 8.26502 -17.8586
lclavicle 2.7159e-014 3.89618e-014
lhumerus -42.8568 13.3041 84.9283
lradius 26.7933
lwrist -9.47062
lhand -18.3151 22.5076
lfingers 7.12502
lthumb 7.96619 52.3374
rfemur 8.71773 6.97419 32.3698
rtibia 18.2095
rfoot -17.8702 -7.94768
rtoes -6.01878
lfemur -35.1194 -5.80581 -10.1175
ltibia 23.3459
lfoot -7.10017 10.2643
ltoes -8.6705
24
root -8.6403 17.0871 -30.0527 2.62362 -6.898 -5.56807
lowerback 7.50984 0.576921 2.09554
upperback -2.55719 1.32821 5.25783
thorax -7.00045 0.688622 4.18767
lowerneck -7.40448 -1.56687 -12.9978
upperneck 18.8411 -1.24165 5.26856
head 7.11234 -1.06351 3.77983
rclavicle -2.62147e-015 1.11319e-014
rhumerus -25.6137 1.3127 -79.8404
rradius 38.2416
rwrist 1.4905
rhand -18.0296 11.5981
rfingers 7.12502
rthumb 8.24179 -18.2212
lclavicle -2.62147e-015 1.11319e-014
lhumerus -44.5676 15.0754 84.272
lradius 26.4005
lwrist -9.90888
lhand -19.0902 20.7631
lfingers 7.12502
lthumb 7.21811 50.62
rfemur 9.8397 6.55735 32.0282
rtibia 17.575
rfoot -17.6624 -7.18948
rtoes -6.65578
lfemur -35.0989 -6.43658 -9.96633
ltibia 21.1607
lfoot -7.6087 11.1974
ltoes -8.40176
25
root -8.64025 17.098 -29.7915 2.6117 -7.20656 -5.5618
lowerback 7.25439 0.588684 2.1555
upperback -2.49726 1.33035 5.23685
thorax -6.78717 0.685473 4.12916
lowerneck -7.53414 -1.396 -13.0098
upperneck 18.7609 -0.988747 5.28575
head 7.08422 -0.937601 3.80725
rclavicle 1.52226e-014 -6.36111e-015
rhumerus -25.2955 1.70742 -79.9229
rradius 38.6765
rwrist 1.34017
rhand -17.8289 11.4004
rfingers 7.12502
rthumb 8.43541 -18.4111
lclavicle 1.52226e-014 -6.36111e-015
lhumerus -44.8871 16.0643 83.6798
lradius 25.6481
lwrist -10.0247
lhand -17.9014 22.1346
lfingers 7.12502
lthumb 8.36551 51.9489
rfemur 10.6952 6.58733 31.8304
rtibia 17.0789
rfoot -17.1228 -6.26259
rtoes -5.48035
lfemur -34.9457 -6.62165 -9.91055
ltibia 19.4114
lfoot -8.44536 12
ltoes -8.14145
